<?xml version="1.0" encoding="UTF-8" standalone="no"?>
<svg
   version="1.1"
   id="svg100"
   viewBox="0 0 150.56 136.72"
   sodipodi:docname="exante-logo-rond-filled.svg"
   width="150.56"
   height="136.72"
   inkscape:version="1.2.2 (b0a84865, 2022-12-01)"
   xmlns:inkscape="http://www.inkscape.org/namespaces/inkscape"
   xmlns:sodipodi="http://sodipodi.sourceforge.net/DTD/sodipodi-0.dtd"
   xmlns="http://www.w3.org/2000/svg"
   xmlns:svg="http://www.w3.org/2000/svg">
  <defs
     id="defs25" />
  <sodipodi:namedview
     id="namedview23"
     pagecolor="#ffffff"
     bordercolor="#000000"
     borderopacity="0.25"
     inkscape:showpageshadow="2"
     inkscape:pageopacity="0.0"
     inkscape:pagecheckerboard="0"
     inkscape:deskcolor="#d1d1d1"
     showgrid="false"
     inkscape:zoom="2.5044617"
     inkscape:cx="37.333372"
     inkscape:cy="81.654272"
     inkscape:window-width="1390"
     inkscape:window-height="1205"
     inkscape:window-x="0"
     inkscape:window-y="25"
     inkscape:window-maximized="0"
     inkscape:current-layer="svg100" />
  <ellipse
     fill="#373737"
     id="circle9"
     style="stroke-width:0.661988;image-rendering:auto"
     ry="66.660004"
     rx="72.948997"
     cy="68.436806"
     cx="75.923943" />
  <g
     id="layer_1"
     data-name="Layer 1"
     transform="matrix(0.82919373,0,0,0.74933625,-212.05289,-300.7564)">
    <path
       transform="matrix(1,0,0,-1,374.751,558.3469)"
       d="m 0,0 h -0.01 c -7.935,-3.333 -16.586,-5.257 -25.635,-5.48 -1.18,-0.031 -2.371,-0.032 -3.571,-10e-4 -0.54,0.013 -1.069,0.037 -1.608,0.06 h -0.011 c -7.153,0.339 -14.031,1.732 -20.465,4.033 -1.438,0.506 -2.854,1.062 -4.25,1.677 l -2.299,-3.924 c 1.386,-0.614 2.791,-1.19 4.229,-1.716 7.593,-2.8 15.765,-4.425 24.292,-4.639 8.997,-0.225 17.664,1.138 25.743,3.827 h 0.011 c 2.289,0.764 4.521,1.628 6.707,2.603 L 7.252,3.55 C 4.918,2.228 2.497,1.048 0,0 m -72.753,126.329 c -1.223,-0.91 -2.407,-1.85 -3.561,-2.842 -12.816,-10.842 -22.005,-25.878 -25.395,-43.028 -0.469,-2.35 -0.828,-4.731 -1.069,-7.156 l 4.133,-7.115 c 0,0.429 0.011,0.86 0.023,1.299 0.057,2.289 0.224,4.556 0.5,6.79 1.089,9.135 3.924,17.727 8.139,25.454 0.837,1.52 1.715,2.999 2.652,4.446 3.694,5.739 8.185,10.898 13.308,15.342 1.155,1.001 2.329,1.952 3.543,2.872 z M 47.129,78.916 c -2.996,16.97 -11.691,32.072 -24.067,43.175 -1.791,1.605 -3.664,3.133 -5.609,4.552 l -0.01,0.001 -8.18,0.064 c 2.315,-1.389 4.538,-2.915 6.658,-4.559 6.899,-5.303 12.787,-11.842 17.343,-19.269 0.914,-1.474 1.766,-2.985 2.567,-4.535 3.12,-6.031 5.408,-12.55 6.697,-19.414 0.293,-1.488 0.526,-2.994 0.707,-4.52 l 4.551,-0.003 c -0.172,1.515 -0.394,3.021 -0.657,4.508"
       fill="#00c3ff"
       id="path29" />
    <path
       transform="matrix(1,0,0,-1,342.0967,501.3723)"
       d="m 0,0 -2.604,-4.507 -38.765,67.051 -2.291,3.969 c 1.154,0.991 2.339,1.931 3.561,2.842 l 2.273,-3.939 z"
       fill="#00c3ff"
       id="path31" />
    <path
       transform="matrix(1,0,0,-1,328.3437,525.1565)"
       d="m 0,0 -2.604,-4.511 -43.187,74.899 3.911,2.258 z"
       fill="#00c3ff"
       id="path33" />
    <path
       transform="matrix(1,0,0,-1,314.4414,549.1955)"
       d="m 0,0 -2.613,-4.517 -35.722,61.553 -4.134,7.115 c 0.241,2.425 0.601,4.807 1.07,7.157 l 3.586,-6.182 z"
       fill="#00c3ff"
       id="path35" />
    <path
       transform="matrix(1,0,0,-1,362.6973,492.7951)"
       d="m 0,0 -39.246,-66.939 -2.32,-3.963 c -1.438,0.525 -2.843,1.101 -4.229,1.715 l 2.299,3.924 38.274,65.264 z"
       fill="#00c3ff"
       id="path37" />
    <path
       transform="matrix(1,0,0,-1,390.1621,492.8176)"
       d="m 0,0 -43.276,-74.848 -3.907,2.265 41.975,72.587 z"
       fill="#00c3ff"
       id="path39" />
    <path
       transform="matrix(1,0,0,-1,417.9434,492.8274)"
       d="m 0,0 -35.931,-61.971 -0.009,10e-4 -4.12,-7.109 c -2.185,-0.976 -4.418,-1.84 -6.707,-2.604 l 3.565,6.163 h 0.01 L -5.201,0 Z"
       fill="#00c3ff"
       id="path41" />
    <path
       transform="matrix(1,0,0,-1,422.5371,483.93873)"
       d="m 0,0 -4.551,0.003 -75.63,0.172 -2.588,4.516 77.511,-0.169 4.601,-0.014 C -0.395,3.021 -0.172,1.515 0,0"
       fill="#00c3ff"
       id="path43" />
    <path
       transform="matrix(1,0,0,-1,412.4746,460.01393)"
       d="M 0,0 -84.104,0.516 -86.717,5.049 0.032,4.513 Z"
       fill="#00c3ff"
       id="path45" />
    <path
       transform="matrix(1,0,0,-1,397.8125,436.25599)"
       d="m 0,0 -7.141,0.059 -75.513,-0.034 -2.617,4.527 71.472,0.065 8.181,-0.064 0.01,-0.001 z"
       fill="#00c3ff"
       id="path47" />
  </g>
</svg>
